<?xml version="1.0" encoding="UTF-8" standalone="no"?>
<!DOCTYPE svg PUBLIC "-//W3C//DTD SVG 1.1//EN"
 "http://www.w3.org/Graphics/SVG/1.1/DTD/svg11.dtd">
<!-- Generated by graphviz version 2.26.0 (20091210.2329)
 -->
<!-- Title: G Pages: 1 -->
<svg width="320pt" height="423pt"
 viewBox="0.00 0.00 320.00 423.00" xmlns="http://www.w3.org/2000/svg" xmlns:xlink="http://www.w3.org/1999/xlink">
<g id="graph1" class="graph" transform="scale(1 1) rotate(0) translate(4 419)">
<title>G</title>
<polygon fill="white" stroke="white" points="-4,5 -4,-419 317,-419 317,5 -4,5"/>
<g id="graph2" class="cluster"><title>cluster_Global</title>
<polyline fill="none" stroke="gray" points="182,-8 292,-8 "/>
<path fill="none" stroke="gray" d="M292,-8C298,-8 304,-14 304,-20"/>
<polyline fill="none" stroke="gray" points="304,-20 304,-395 "/>
<path fill="none" stroke="gray" d="M304,-395C304,-401 298,-407 292,-407"/>
<polyline fill="none" stroke="gray" points="292,-407 182,-407 "/>
<path fill="none" stroke="gray" d="M182,-407C176,-407 170,-401 170,-395"/>
<polyline fill="none" stroke="gray" points="170,-395 170,-20 "/>
<path fill="none" stroke="gray" d="M170,-20C170,-14 176,-8 182,-8"/>
<text text-anchor="middle" x="237" y="-393.1" font-family="Times Roman,serif" font-size="11.00" fill="gray">Global</text>
</g>
<!-- \\YBLANG -->
<g id="node2" class="node"><title>\\YBLANG</title>
<polygon fill="none" stroke="black" points="265,-376 209,-376 209,-340 265,-340 265,-376"/>
<text text-anchor="middle" x="237" y="-355.1" font-family="Courier,monospace" font-size="11.00">YBLANG</text>
</g>
<!-- \\YBAPI_Authorize -->
<g id="node3" class="node"><title>\\YBAPI_Authorize</title>
<polygon fill="none" stroke="black" points="296,-322 178,-322 178,-286 296,-286 296,-322"/>
<text text-anchor="middle" x="237" y="-301.1" font-family="Courier,monospace" font-size="11.00">YBAPI_Authorize</text>
</g>
<!-- \\YBAPI_FrameUtil -->
<g id="node4" class="node"><title>\\YBAPI_FrameUtil</title>
<polygon fill="none" stroke="black" points="296,-268 178,-268 178,-232 296,-232 296,-268"/>
<text text-anchor="middle" x="237" y="-247.1" font-family="Courier,monospace" font-size="11.00">YBAPI_FrameUtil</text>
</g>
<!-- \\YBAPI_Friend -->
<g id="node5" class="node"><title>\\YBAPI_Friend</title>
<polygon fill="none" stroke="black" points="286,-214 188,-214 188,-178 286,-178 286,-214"/>
<text text-anchor="middle" x="237" y="-193.1" font-family="Courier,monospace" font-size="11.00">YBAPI_Friend</text>
</g>
<!-- \\YBAPI_User -->
<g id="node6" class="node"><title>\\YBAPI_User</title>
<polygon fill="none" stroke="black" points="279,-160 195,-160 195,-124 279,-124 279,-160"/>
<text text-anchor="middle" x="237" y="-139.1" font-family="Courier,monospace" font-size="11.00">YBAPI_User</text>
</g>
<!-- \\YBException -->
<g id="node7" class="node"><title>\\YBException</title>
<polygon fill="none" stroke="black" points="282,-106 192,-106 192,-70 282,-70 282,-106"/>
<text text-anchor="middle" x="237" y="-85.1" font-family="Courier,monospace" font-size="11.00">YBException</text>
</g>
<!-- \\Exception -->
<g id="node10" class="node"><title>\\Exception</title>
<ellipse fill="none" stroke="black" cx="53" cy="-88" rx="53.033" ry="19.0919"/>
<text text-anchor="middle" x="53" y="-84.9" font-family="Times Roman,serif" font-size="14.00" fill="gray">\Exception</text>
</g>
<!-- \\YBException&#45;&gt;\\Exception -->
<g id="edge3" class="edge"><title>\\YBException&#45;&gt;\\Exception</title>
<path fill="none" stroke="black" d="M191.044,-88C168.504,-88 140.997,-88 116.486,-88"/>
<polygon fill="none" stroke="black" points="116.188,-84.5001 106.188,-88 116.188,-91.5001 116.188,-84.5001"/>
</g>
<!-- \\YBOpenApi -->
<g id="node8" class="node"><title>\\YBOpenApi</title>
<polygon fill="none" stroke="black" points="275,-52 199,-52 199,-16 275,-16 275,-52"/>
<text text-anchor="middle" x="237" y="-31.1" font-family="Courier,monospace" font-size="11.00">YBOpenApi</text>
</g>
</g>
</svg>
